<svg width="35" height="35" viewBox="0 0 35 35" fill="none" xmlns="http://www.w3.org/2000/svg">
<path d="M17.5002 17.4993C15.896 17.4993 14.5835 16.1868 14.5835 14.5827C14.5835 12.9785 15.896 11.666 17.5002 11.666C19.1043 11.666 20.4168 12.9785 20.4168 14.5827C20.4168 16.1868 19.1043 17.4993 17.5002 17.4993ZM26.2502 14.8743C26.2502 9.5806 22.3856 5.83268 17.5002 5.83268C12.6147 5.83268 8.75016 9.5806 8.75016 14.8743C8.75016 18.2868 11.5939 22.8077 17.5002 28.2035C23.4064 22.8077 26.2502 18.2868 26.2502 14.8743ZM17.5002 2.91602C23.6252 2.91602 29.1668 7.61185 29.1668 14.8743C29.1668 19.716 25.2731 25.4473 17.5002 32.0827C9.72725 25.4473 5.8335 19.716 5.8335 14.8743C5.8335 7.61185 11.3752 2.91602 17.5002 2.91602Z" fill="#2468E4"/>
</svg>
